<svg width="380" height="151" viewBox="0 0 380 151" fill="none" xmlns="http://www.w3.org/2000/svg">
<path d="M57.4943 81H49.9375L59.7528 51.9091H69.1136L78.929 81H71.3722L64.5398 59.2386H64.3125L57.4943 81ZM56.4858 69.5511H72.2812V74.892H56.4858V69.5511ZM90.0611 81V51.9091H109.919V57.6193H97.0923V63.5852H108.655V69.3097H97.0923V81H90.0611ZM121.46 81V51.9091H141.744V57.6193H128.491V63.5852H140.707V69.3097H128.491V75.2898H141.744V81H121.46ZM153.195 57.6193V51.9091H177.783V57.6193H168.962V81H162.031V57.6193H153.195ZM189.217 81V51.9091H209.501V57.6193H196.249V63.5852H208.464V69.3097H196.249V75.2898H209.501V81H189.217ZM221.905 81V51.9091H233.922C236.1 51.9091 237.98 52.3021 239.561 53.0881C241.152 53.8646 242.378 54.982 243.24 56.4403C244.102 57.8892 244.533 59.608 244.533 61.5966C244.533 63.6136 244.092 65.3277 243.212 66.7386C242.331 68.1402 241.081 69.2102 239.462 69.9489C237.842 70.678 235.925 71.0426 233.709 71.0426H226.109V65.5028H232.402C233.463 65.5028 234.348 65.3655 235.058 65.0909C235.778 64.8068 236.322 64.3807 236.692 63.8125C237.061 63.2348 237.246 62.4962 237.246 61.5966C237.246 60.697 237.061 59.9536 236.692 59.3665C236.322 58.7699 235.778 58.3248 235.058 58.0312C234.339 57.7282 233.453 57.5767 232.402 57.5767H228.936V81H221.905ZM238.283 67.7045L245.527 81H237.857L230.754 67.7045H238.283ZM263.42 51.9091V81H256.389V51.9091H263.42ZM282.127 81H274.57L284.386 51.9091H293.746L303.562 81H296.005L289.173 59.2386H288.945L282.127 81ZM281.119 69.5511H296.914V74.892H281.119V69.5511Z" fill="black"/>
<path d="M113.951 37.7512C106.619 30.2847 97.1968 25.1998 86.8764 23.1396C76.556 21.0793 65.8008 22.1362 55.971 26.1766C46.1412 30.217 37.6782 37.0594 31.6523 45.8386C25.6263 54.6178 22.308 64.9394 22.1171 75.4983C21.9261 86.0571 24.871 96.379 30.5793 105.159C36.2877 113.938 44.5031 120.781 54.1867 124.822C63.8703 128.863 74.5872 129.921 84.9822 127.861C95.3771 125.802 104.983 120.717 112.586 113.251L100.793 101.243C95.6088 106.334 89.0583 109.801 81.9699 111.205C74.8815 112.61 67.5736 111.889 60.9702 109.133C54.3669 106.378 48.7647 101.711 44.8721 95.7244C40.9795 89.7376 38.9714 82.699 39.1016 75.4988C39.2319 68.2986 41.4946 61.2602 45.6038 55.2736C49.7129 49.287 55.4839 44.6211 62.1869 41.8659C68.89 39.1108 76.224 38.3901 83.2616 39.795C90.2992 41.1999 96.7242 44.6673 101.724 49.7588L113.951 37.7512Z" fill="#435FC0"/>
</svg>
