<svg width="1354" height="565" viewBox="0 0 1354 565" fill="none" xmlns="http://www.w3.org/2000/svg">
<path d="M220.386 282H202.25L225.807 212.182H248.273L271.83 282H253.693L237.295 229.773H236.75L220.386 282ZM217.966 254.523H255.875V267.341H217.966V254.523ZM298.547 282V212.182H346.206V225.886H315.422V240.205H343.172V253.943H315.422V282H298.547ZM373.903 282V212.182H422.585V225.886H390.778V240.205H420.096V253.943H390.778V268.295H422.585V282H373.903ZM450.069 225.886V212.182H509.08V225.886H487.91V282H471.273V225.886H450.069ZM536.522 282V212.182H585.203V225.886H553.397V240.205H582.715V253.943H553.397V268.295H585.203V282H536.522ZM614.972 282V212.182H643.812C649.04 212.182 653.551 213.125 657.347 215.011C661.165 216.875 664.108 219.557 666.176 223.057C668.244 226.534 669.278 230.659 669.278 235.432C669.278 240.273 668.222 244.386 666.108 247.773C663.994 251.136 660.994 253.705 657.108 255.477C653.222 257.227 648.619 258.102 643.301 258.102H625.062V244.807H640.165C642.71 244.807 644.835 244.477 646.54 243.818C648.267 243.136 649.574 242.114 650.46 240.75C651.347 239.364 651.79 237.591 651.79 235.432C651.79 233.273 651.347 231.489 650.46 230.08C649.574 228.648 648.267 227.58 646.54 226.875C644.813 226.148 642.688 225.784 640.165 225.784H631.847V282H614.972ZM654.278 250.091L671.665 282H653.256L636.21 250.091H654.278ZM714.609 212.182V282H697.734V212.182H714.609ZM759.505 282H741.369L764.926 212.182H787.392L810.948 282H792.812L776.414 229.773H775.869L759.505 282ZM757.085 254.523H794.994V267.341H757.085V254.523Z" fill="black"/>
<path d="M423.609 143.877C395.664 115.42 360.068 95.7335 321.321 87.3052C282.575 78.877 242.42 82.0859 205.932 96.5264C169.445 110.967 138.264 135.99 116.334 168.432C94.4042 200.874 82.7091 239.277 82.728 278.785C82.7469 318.294 94.479 357.133 116.441 390.391C138.402 423.649 169.607 449.832 206.109 465.63C242.611 481.428 282.77 486.131 321.509 479.144C360.248 472.157 395.826 453.794 423.744 426.377L378.8 380.611C359.762 399.307 335.501 411.829 309.085 416.593C282.669 421.358 255.284 418.151 230.393 407.378C205.502 396.605 184.223 378.751 169.247 356.072C154.271 333.393 146.271 306.908 146.258 279.967C146.245 253.026 154.22 226.838 169.175 204.716C184.129 182.594 205.391 165.53 230.272 155.683C255.153 145.836 282.536 143.648 308.957 149.395C335.379 155.142 359.652 168.567 378.708 187.971L423.609 143.877Z" fill="#435FC0"/>
<g filter="url(#filter0_f_9_23)">
<path d="M182 302.636L1253 303" stroke="black" stroke-width="3"/>
</g>
<path d="M880.989 328.631L881.449 325.818H901.085L900.625 328.631H892.392L888.506 352H885.335L889.222 328.631H880.989ZM911.478 352.46C910.234 352.46 909.143 352.226 908.205 351.757C907.268 351.28 906.573 350.594 906.122 349.699C905.67 348.795 905.546 347.705 905.751 346.426C905.947 345.301 906.326 344.389 906.889 343.69C907.451 342.983 908.133 342.429 908.934 342.028C909.744 341.619 910.613 341.317 911.542 341.121C912.479 340.916 913.413 340.759 914.342 340.648C915.552 340.494 916.536 340.375 917.295 340.29C918.053 340.205 918.624 340.064 919.008 339.868C919.391 339.672 919.626 339.335 919.711 338.858V338.756C919.916 337.503 919.749 336.527 919.212 335.828C918.675 335.121 917.717 334.767 916.336 334.767C914.904 334.767 913.707 335.082 912.744 335.713C911.781 336.344 911.069 337.017 910.609 337.733L907.95 336.71C908.649 335.517 909.484 334.588 910.455 333.923C911.427 333.25 912.445 332.781 913.511 332.517C914.576 332.244 915.603 332.108 916.592 332.108C917.222 332.108 917.934 332.185 918.727 332.338C919.519 332.483 920.261 332.786 920.951 333.246C921.65 333.706 922.174 334.401 922.524 335.33C922.881 336.259 922.933 337.503 922.677 339.062L920.529 352H917.512L917.972 349.341H917.819C917.546 349.767 917.129 350.223 916.566 350.709C916.012 351.195 915.309 351.608 914.457 351.949C913.613 352.29 912.62 352.46 911.478 352.46ZM912.347 349.75C913.541 349.75 914.585 349.516 915.479 349.047C916.383 348.578 917.107 347.973 917.653 347.232C918.207 346.49 918.552 345.71 918.688 344.892L919.149 342.131C918.995 342.284 918.693 342.425 918.241 342.553C917.789 342.672 917.278 342.778 916.707 342.872C916.144 342.957 915.595 343.034 915.058 343.102C914.529 343.162 914.103 343.213 913.779 343.256C912.978 343.358 912.215 343.524 911.491 343.754C910.775 343.976 910.17 344.312 909.675 344.764C909.19 345.207 908.887 345.812 908.768 346.58C908.589 347.628 908.84 348.42 909.522 348.957C910.204 349.486 911.146 349.75 912.347 349.75ZM949.702 336.761L946.838 337.528C946.736 337.068 946.557 336.625 946.301 336.199C946.054 335.764 945.671 335.411 945.151 335.138C944.639 334.857 943.94 334.716 943.054 334.716C941.852 334.716 940.808 334.993 939.922 335.547C939.036 336.092 938.529 336.787 938.401 337.631C938.273 338.372 938.443 338.964 938.912 339.408C939.381 339.851 940.165 340.213 941.264 340.494L944.077 341.21C945.764 341.645 946.966 342.297 947.682 343.166C948.406 344.027 948.654 345.148 948.423 346.528C948.236 347.653 947.746 348.659 946.953 349.545C946.161 350.432 945.146 351.131 943.911 351.642C942.675 352.153 941.298 352.409 939.781 352.409C937.762 352.409 936.168 351.974 935 351.105C933.833 350.227 933.21 348.957 933.134 347.295L936.151 346.58C936.227 347.628 936.602 348.42 937.276 348.957C937.958 349.486 938.912 349.75 940.139 349.75C941.546 349.75 942.717 349.452 943.655 348.855C944.592 348.25 945.125 347.526 945.253 346.682C945.381 345.991 945.244 345.416 944.844 344.956C944.452 344.496 943.77 344.151 942.798 343.92L939.679 343.153C937.94 342.719 936.722 342.054 936.023 341.159C935.333 340.264 935.102 339.139 935.333 337.784C935.52 336.676 935.997 335.696 936.764 334.844C937.54 333.991 938.512 333.322 939.679 332.837C940.855 332.351 942.134 332.108 943.514 332.108C945.458 332.108 946.911 332.534 947.874 333.386C948.837 334.23 949.446 335.355 949.702 336.761ZM971.057 332.364L970.648 334.92H960.472L960.881 332.364H971.057ZM964.614 327.659H967.631L964.512 346.375C964.375 347.227 964.397 347.866 964.575 348.293C964.763 348.71 965.044 348.991 965.419 349.136C965.803 349.273 966.216 349.341 966.659 349.341C966.992 349.341 967.264 349.324 967.477 349.29C967.691 349.247 967.861 349.213 967.989 349.188L968.193 351.898C967.963 351.974 967.652 352.051 967.26 352.128C966.877 352.213 966.404 352.256 965.841 352.256C964.989 352.256 964.188 352.072 963.438 351.706C962.688 351.339 962.112 350.781 961.712 350.031C961.311 349.281 961.205 348.335 961.392 347.193L964.614 327.659ZM987.494 352.409C985.61 352.409 984.055 351.991 982.827 351.156C981.6 350.312 980.744 349.136 980.258 347.628C979.772 346.111 979.695 344.347 980.028 342.335C980.36 340.324 981.021 338.551 982.009 337.017C982.998 335.474 984.229 334.273 985.704 333.412C987.178 332.543 988.798 332.108 990.562 332.108C991.584 332.108 992.569 332.278 993.515 332.619C994.461 332.96 995.279 333.514 995.969 334.281C996.66 335.04 997.141 336.045 997.414 337.298C997.687 338.551 997.67 340.094 997.363 341.926L997.158 343.205H982.022L982.431 340.597H994.499C994.695 339.489 994.644 338.5 994.346 337.631C994.056 336.761 993.549 336.075 992.825 335.572C992.109 335.07 991.201 334.818 990.101 334.818C988.968 334.818 987.911 335.125 986.931 335.739C985.951 336.344 985.133 337.111 984.476 338.04C983.82 338.96 983.411 339.898 983.249 340.852L982.891 343.102C982.636 344.73 982.674 346.026 983.006 346.989C983.347 347.952 983.94 348.646 984.783 349.072C985.627 349.49 986.684 349.699 987.954 349.699C988.763 349.699 989.509 349.588 990.191 349.366C990.873 349.136 991.482 348.795 992.019 348.344C992.556 347.884 993.008 347.312 993.374 346.631L996.136 347.449C995.667 348.438 995.006 349.307 994.154 350.057C993.31 350.798 992.322 351.378 991.188 351.795C990.063 352.205 988.832 352.409 987.494 352.409ZM1029.82 340.188L1027.88 352H1024.86L1028.13 332.364H1031.05L1030.54 335.432H1030.79C1031.41 334.435 1032.24 333.634 1033.28 333.028C1034.33 332.415 1035.6 332.108 1037.08 332.108C1038.39 332.108 1039.5 332.381 1040.41 332.926C1041.32 333.463 1041.96 334.281 1042.34 335.381C1042.72 336.472 1042.77 337.852 1042.5 339.523L1040.41 352H1037.39L1039.43 339.727C1039.69 338.193 1039.49 336.991 1038.83 336.122C1038.19 335.253 1037.16 334.818 1035.75 334.818C1034.78 334.818 1033.88 335.027 1033.05 335.445C1032.24 335.862 1031.54 336.472 1030.97 337.273C1030.41 338.074 1030.02 339.045 1029.82 340.188ZM1061.3 352.409C1059.42 352.409 1057.86 351.991 1056.63 351.156C1055.41 350.312 1054.55 349.136 1054.06 347.628C1053.58 346.111 1053.5 344.347 1053.83 342.335C1054.17 340.324 1054.83 338.551 1055.82 337.017C1056.8 335.474 1058.04 334.273 1059.51 333.412C1060.99 332.543 1062.6 332.108 1064.37 332.108C1065.39 332.108 1066.38 332.278 1067.32 332.619C1068.27 332.96 1069.09 333.514 1069.78 334.281C1070.47 335.04 1070.95 336.045 1071.22 337.298C1071.49 338.551 1071.48 340.094 1071.17 341.926L1070.97 343.205H1055.83L1056.24 340.597H1068.31C1068.5 339.489 1068.45 338.5 1068.15 337.631C1067.86 336.761 1067.36 336.075 1066.63 335.572C1065.92 335.07 1065.01 334.818 1063.91 334.818C1062.77 334.818 1061.72 335.125 1060.74 335.739C1059.76 336.344 1058.94 337.111 1058.28 338.04C1057.63 338.96 1057.22 339.898 1057.06 340.852L1056.7 343.102C1056.44 344.73 1056.48 346.026 1056.81 346.989C1057.15 347.952 1057.75 348.646 1058.59 349.072C1059.43 349.49 1060.49 349.699 1061.76 349.699C1062.57 349.699 1063.32 349.588 1064 349.366C1064.68 349.136 1065.29 348.795 1065.83 348.344C1066.36 347.884 1066.81 347.312 1067.18 346.631L1069.94 347.449C1069.47 348.438 1068.81 349.307 1067.96 350.057C1067.12 350.798 1066.13 351.378 1065 351.795C1063.87 352.205 1062.64 352.409 1061.3 352.409ZM1085.79 352L1083.08 332.364H1086.25L1087.99 347.398H1088.19L1094.89 332.364H1098.11L1099.75 347.347H1099.96L1106.71 332.364H1109.88L1100.62 352H1097.65L1095.86 336.915H1095.56L1088.76 352H1085.79ZM1154.45 332.364L1143.91 352H1140.84L1136.86 332.364H1140L1142.81 348.011H1143.02L1151.05 332.364H1154.45ZM1169.76 352.409C1167.95 352.409 1166.44 351.979 1165.22 351.118C1164 350.257 1163.14 349.051 1162.64 347.5C1162.14 345.949 1162.06 344.142 1162.39 342.08C1162.72 340.068 1163.36 338.317 1164.33 336.825C1165.3 335.325 1166.5 334.166 1167.94 333.348C1169.39 332.521 1170.99 332.108 1172.72 332.108C1174.53 332.108 1176.04 332.543 1177.25 333.412C1178.47 334.273 1179.33 335.483 1179.83 337.043C1180.33 338.594 1180.42 340.409 1180.09 342.489C1179.76 344.483 1179.11 346.226 1178.13 347.717C1177.16 349.2 1175.95 350.355 1174.51 351.182C1173.08 352 1171.5 352.409 1169.76 352.409ZM1169.81 349.699C1171.19 349.699 1172.39 349.345 1173.4 348.638C1174.42 347.93 1175.25 346.997 1175.88 345.838C1176.52 344.679 1176.95 343.426 1177.17 342.08C1177.38 340.801 1177.37 339.612 1177.15 338.513C1176.93 337.405 1176.45 336.514 1175.73 335.841C1175 335.159 1173.99 334.818 1172.67 334.818C1171.29 334.818 1170.09 335.176 1169.06 335.892C1168.03 336.608 1167.21 337.55 1166.58 338.717C1165.94 339.885 1165.52 341.142 1165.31 342.489C1165.1 343.767 1165.11 344.956 1165.32 346.055C1165.54 347.146 1166.02 348.028 1166.74 348.702C1167.47 349.366 1168.5 349.699 1169.81 349.699ZM1190.33 352L1193.61 332.364H1196.62L1193.35 352H1190.33ZM1196.04 329.04C1195.45 329.04 1194.94 328.839 1194.51 328.439C1194.1 328.038 1193.89 327.557 1193.89 326.994C1193.89 326.432 1194.1 325.95 1194.51 325.55C1194.94 325.149 1195.45 324.949 1196.04 324.949C1196.62 324.949 1197.13 325.149 1197.54 325.55C1197.97 325.95 1198.18 326.432 1198.18 326.994C1198.18 327.557 1197.97 328.038 1197.54 328.439C1197.13 328.839 1196.62 329.04 1196.04 329.04ZM1214 352.409C1212.15 352.409 1210.64 351.974 1209.45 351.105C1208.28 350.236 1207.46 349.038 1207 347.513C1206.54 345.987 1206.47 344.244 1206.79 342.284C1207.12 340.29 1207.77 338.53 1208.76 337.004C1209.75 335.47 1210.98 334.273 1212.46 333.412C1213.93 332.543 1215.55 332.108 1217.33 332.108C1218.71 332.108 1219.91 332.364 1220.93 332.875C1221.95 333.386 1222.74 334.102 1223.3 335.023C1223.85 335.943 1224.11 337.017 1224.08 338.244H1221.06C1220.97 337.349 1220.59 336.557 1219.91 335.866C1219.24 335.168 1218.24 334.818 1216.92 334.818C1215.74 334.818 1214.66 335.125 1213.67 335.739C1212.68 336.344 1211.85 337.2 1211.18 338.308C1210.5 339.408 1210.05 340.699 1209.81 342.182C1209.55 343.699 1209.58 345.02 1209.87 346.145C1210.17 347.27 1210.71 348.143 1211.5 348.766C1212.28 349.388 1213.27 349.699 1214.46 349.699C1215.25 349.699 1215.98 349.562 1216.66 349.29C1217.34 349.017 1217.95 348.625 1218.48 348.114C1219.01 347.602 1219.42 346.989 1219.73 346.273H1222.75C1222.37 347.432 1221.77 348.476 1220.94 349.405C1220.12 350.325 1219.12 351.058 1217.94 351.604C1216.76 352.141 1215.45 352.409 1214 352.409ZM1241.57 352.409C1239.68 352.409 1238.13 351.991 1236.9 351.156C1235.67 350.312 1234.82 349.136 1234.33 347.628C1233.85 346.111 1233.77 344.347 1234.1 342.335C1234.43 340.324 1235.09 338.551 1236.08 337.017C1237.07 335.474 1238.3 334.273 1239.78 333.412C1241.25 332.543 1242.87 332.108 1244.64 332.108C1245.66 332.108 1246.64 332.278 1247.59 332.619C1248.54 332.96 1249.35 333.514 1250.04 334.281C1250.73 335.04 1251.22 336.045 1251.49 337.298C1251.76 338.551 1251.74 340.094 1251.44 341.926L1251.23 343.205H1236.1L1236.51 340.597H1248.57C1248.77 339.489 1248.72 338.5 1248.42 337.631C1248.13 336.761 1247.62 336.075 1246.9 335.572C1246.18 335.07 1245.28 334.818 1244.18 334.818C1243.04 334.818 1241.99 335.125 1241.01 335.739C1240.03 336.344 1239.21 337.111 1238.55 338.04C1237.89 338.96 1237.49 339.898 1237.32 340.852L1236.97 343.102C1236.71 344.73 1236.75 346.026 1237.08 346.989C1237.42 347.952 1238.01 348.646 1238.86 349.072C1239.7 349.49 1240.76 349.699 1242.03 349.699C1242.84 349.699 1243.58 349.588 1244.27 349.366C1244.95 349.136 1245.56 348.795 1246.09 348.344C1246.63 347.884 1247.08 347.312 1247.45 346.631L1250.21 347.449C1249.74 348.438 1249.08 349.307 1248.23 350.057C1247.38 350.798 1246.4 351.378 1245.26 351.795C1244.14 352.205 1242.91 352.409 1241.57 352.409Z" fill="black"/>
<defs>
<filter id="filter0_f_9_23" x="177.999" y="297.136" width="1079" height="11.3644" filterUnits="userSpaceOnUse" color-interpolation-filters="sRGB">
<feFlood flood-opacity="0" result="BackgroundImageFix"/>
<feBlend mode="normal" in="SourceGraphic" in2="BackgroundImageFix" result="shape"/>
<feGaussianBlur stdDeviation="2" result="effect1_foregroundBlur_9_23"/>
</filter>
</defs>
</svg>
